<svg width="16" height="16" viewBox="0 0 16 16" fill="none" opacity="0.3" xmlns="http://www.w3.org/2000/svg">
<path d="M10.2491 5.86542C9.87941 4.30588 9.33117 3.31107 8.45245 3.06865C8.28227 3.02231 8.1058 2.9992 7.92852 3.00002C7.38831 3.00002 6.96201 3.30001 5.99993 3.30001C5.03784 3.30001 4.61074 3.00002 4.07134 3.00002C3.88666 2.99913 3.70275 3.02223 3.5249 3.06865C2.64498 3.31107 2.10136 4.30682 1.72749 5.86542C1.34579 7.45738 1.4149 8.71524 2.16103 8.95673C2.68335 9.12547 3.15043 8.77655 3.5928 8.26302C4.09504 7.67806 4.7136 7.49807 5.99993 7.49807C7.28626 7.49807 7.88071 7.67806 8.38375 8.26302C8.82572 8.77693 9.31008 9.12153 9.81854 8.95973C10.6426 8.69706 10.631 7.47613 10.2491 5.86542Z" stroke="black" stroke-width="0.75" stroke-miterlimit="10"/>
<path d="M6.72314 5.77486C6.94504 5.77486 7.12493 5.60697 7.12493 5.39988C7.12493 5.19279 6.94504 5.0249 6.72314 5.0249C6.50124 5.0249 6.32135 5.19279 6.32135 5.39988C6.32135 5.60697 6.50124 5.77486 6.72314 5.77486Z" fill="black"/>
<path d="M7.60705 6.59981C7.52754 6.59981 7.44982 6.57779 7.38372 6.53655C7.31763 6.4953 7.26613 6.43668 7.23575 6.36811C7.20537 6.29954 7.19747 6.2241 7.21306 6.15133C7.22864 6.07857 7.26701 6.01175 7.3233 5.95935C7.37959 5.90695 7.45128 5.87131 7.52928 5.85694C7.60729 5.84258 7.68811 5.85014 7.76151 5.87867C7.83491 5.90719 7.89759 5.9554 7.94162 6.01719C7.98564 6.07898 8.00904 6.15157 8.00884 6.22577C8.00857 6.32506 7.96613 6.42019 7.8908 6.49031C7.81548 6.56043 7.71344 6.59981 7.60705 6.59981Z" fill="black"/>
<path d="M7.60705 4.94991C7.82895 4.94991 8.00884 4.78202 8.00884 4.57493C8.00884 4.36783 7.82895 4.19995 7.60705 4.19995C7.38515 4.19995 7.20526 4.36783 7.20526 4.57493C7.20526 4.78202 7.38515 4.94991 7.60705 4.94991Z" fill="black"/>
<path d="M8.49096 5.77486C8.71287 5.77486 8.89275 5.60697 8.89275 5.39988C8.89275 5.19279 8.71287 5.0249 8.49096 5.0249C8.26906 5.0249 8.08917 5.19279 8.08917 5.39988C8.08917 5.60697 8.26906 5.77486 8.49096 5.77486Z" fill="black"/>
<path d="M4.07141 4.49994V6.29983M5.03571 5.39988H3.10712" stroke="black" stroke-width="0.75" stroke-linecap="round" stroke-linejoin="round"/>
</svg>
