<?xml version="1.0" standalone="no"?>
<!DOCTYPE svg PUBLIC "-//W3C//DTD SVG 20010904//EN"
 "http://www.w3.org/TR/2001/REC-SVG-20010904/DTD/svg10.dtd">
<svg version="1.0" xmlns="http://www.w3.org/2000/svg"
 width="640.000000pt" height="307.000000pt" viewBox="0 0 640.000000 307.000000"
 preserveAspectRatio="xMidYMid meet">

<g transform="translate(0.000000,307.000000) scale(0.100000,-0.100000)"
fill="#fff" stroke="none">
<path d="M2113 3062 c-27 -17 -199 -338 -224 -416 -10 -34 -34 -92 -54 -130
-19 -39 -35 -79 -35 -90 0 -12 14 -41 30 -65 46 -67 40 -78 -16 -34 -26 19
-38 23 -46 15 -8 -8 -8 -15 2 -27 14 -17 35 -21 25 -5 -10 16 1 11 16 -7 12
-15 12 -16 -1 -8 -8 4 0 -8 19 -28 45 -48 36 -55 -18 -16 -45 33 -70 33 -30 0
24 -20 23 -20 -65 0 -50 10 -102 19 -117 19 -44 0 -43 18 1 36 45 18 39 34
-11 34 -22 0 -28 -5 -33 -34 -6 -30 -11 -34 -48 -40 -22 -4 -43 -4 -46 -1 -3
2 -4 34 -3 70 2 55 -1 67 -19 82 -48 41 -49 35 26 268 28 87 94 212 130 246
l22 21 6 -39 c27 -165 42 -469 24 -490 -6 -8 -26 -20 -45 -28 -18 -8 -33 -21
-33 -29 0 -17 11 -18 50 -6 21 7 22 8 5 9 l-20 2 20 15 c56 41 53 34 49 166
-8 235 -34 418 -60 418 -19 0 -91 -100 -121 -168 -52 -118 -103 -284 -103
-338 0 -14 11 -32 30 -46 36 -26 25 -50 -12 -26 -33 21 -58 29 -58 18 0 -5 9
-11 19 -15 12 -4 18 -12 14 -21 -4 -10 2 -14 20 -14 36 0 45 -20 10 -21 l-28
-1 30 -8 30 -7 -27 -11 c-35 -15 -36 -21 -2 -14 38 7 23 -13 -29 -38 -49 -24
-44 -24 -50 0 -3 11 -12 20 -21 20 -10 0 -23 17 -32 40 -9 22 -26 47 -38 55
-11 9 -35 39 -52 68 -16 28 -47 63 -67 76 -28 18 -38 33 -43 60 -10 63 -59
181 -74 181 -5 0 -12 -12 -16 -27 -3 -16 -9 -41 -13 -57 l-7 -29 -18 42 c-11
22 -22 41 -27 41 -14 0 -21 -83 -14 -175 5 -71 3 -103 -8 -137 -20 -59 -16
-258 7 -313 12 -28 13 -41 5 -51 -14 -17 -39 -18 -39 -2 0 17 -51 -66 -110
-179 -32 -62 -54 -121 -61 -160 -13 -71 -24 -84 -98 -108 -68 -22 -91 -45 -91
-90 0 -20 -7 -51 -15 -71 -13 -31 -17 -34 -42 -28 -31 7 -26 -3 9 -20 41 -21
29 -47 -32 -68 -30 -10 -59 -23 -64 -28 -15 -15 3 -12 61 10 l53 20 0 -23 c0
-13 -6 -32 -14 -42 -11 -16 -11 -21 -1 -30 16 -13 37 -74 29 -86 -3 -5 -13 -9
-23 -9 -10 0 -24 -7 -31 -15 -7 -8 -10 -15 -6 -15 4 0 -1 -14 -10 -31 -16 -32
-53 -74 -177 -203 -98 -102 -98 -103 -101 -119 -1 -7 -9 -26 -19 -40 -9 -15
-17 -30 -17 -35 0 -13 -30 -72 -57 -112 -13 -19 -23 -47 -23 -63 0 -15 -6 -40
-14 -55 -12 -25 -30 -132 -21 -132 2 0 9 27 16 60 6 32 20 66 30 75 10 10 16
22 13 29 -5 12 48 36 78 36 9 0 28 -14 41 -32 22 -27 28 -30 41 -19 20 17 23
168 3 194 -11 16 -14 16 -52 -3 -21 -11 -40 -20 -42 -20 -6 0 11 37 25 53 8 9
11 17 7 17 -5 0 4 13 19 29 16 16 25 34 22 39 -9 14 112 135 176 175 73 47
149 69 173 50 11 -7 33 -13 51 -13 39 0 98 -30 174 -88 30 -23 62 -42 70 -41
11 0 11 3 -4 12 -10 7 -47 33 -82 59 -78 56 -203 100 -261 91 -21 -3 -55 -14
-75 -24 -60 -30 -60 -23 -2 38 29 31 56 65 59 74 3 9 14 19 25 22 21 5 21 31
0 82 -7 19 -9 50 -4 85 3 30 8 71 9 90 1 20 7 46 14 57 6 12 11 39 11 60 0 22
5 44 11 50 18 18 68 -12 84 -50 14 -32 14 -32 15 -5 0 17 -10 35 -31 52 -17
14 -29 26 -27 27 18 6 68 5 68 -2 0 -5 12 -9 27 -9 14 0 24 -3 20 -6 -5 -5 27
-44 37 -44 14 0 -11 44 -36 64 l-30 23 28 22 c25 19 28 29 29 84 1 53 9 76 53
165 29 57 57 100 62 97 5 -3 11 4 15 15 4 11 13 19 21 18 8 -2 25 10 38 27 21
26 26 28 40 16 15 -12 22 -9 58 27 23 23 47 42 55 42 7 0 24 7 36 15 39 25
190 82 264 99 85 19 205 21 306 4 71 -11 91 -22 83 -45 -3 -7 13 -13 47 -15
29 -2 53 -3 55 -3 1 1 5 32 9 68 5 60 4 69 -27 122 -29 51 -31 59 -20 83 24
52 62 147 77 197 27 89 194 394 220 402 19 7 39 -89 64 -317 14 -130 9 -401
-8 -421 -7 -8 -36 -21 -65 -28 -62 -16 -88 -35 -88 -66 0 -12 -7 -42 -15 -65
-20 -55 -19 -63 4 -48 16 10 26 7 60 -15 23 -15 66 -37 96 -48 51 -19 80 -39
56 -39 -22 0 -10 -17 28 -38 21 -12 45 -29 52 -38 12 -15 11 -16 -9 -10 -12 4
-22 3 -22 -2 0 -6 10 -12 23 -16 12 -3 36 -19 52 -36 28 -29 28 -30 7 -30 -21
0 -19 -3 13 -31 19 -17 32 -35 29 -41 -3 -5 3 -18 15 -29 30 -28 53 -65 49
-81 -1 -7 7 -29 19 -48 11 -19 28 -57 36 -85 9 -27 30 -86 47 -130 17 -44 38
-108 47 -142 8 -35 18 -63 23 -63 12 0 -22 121 -64 229 -20 51 -36 99 -36 105
0 7 -11 35 -25 62 -14 27 -25 55 -25 63 0 7 -20 47 -45 87 -25 41 -44 78 -42
82 1 4 -10 23 -26 43 -15 20 -27 40 -27 45 0 6 -16 25 -35 44 -19 19 -35 39
-35 44 0 19 -64 62 -117 80 -29 10 -63 26 -75 37 l-23 21 23 -5 c12 -3 22 -1
22 4 0 5 -6 9 -13 9 -7 0 -22 6 -33 14 -17 13 -14 14 25 5 24 -5 46 -7 49 -5
6 6 -43 26 -64 26 -8 0 -14 4 -14 10 0 12 50 4 104 -16 45 -17 54 -14 28 9
-11 10 -45 20 -80 23 -35 4 -60 9 -58 11 3 3 29 9 58 13 l53 8 -55 1 -55 2 40
19 c22 10 47 19 56 19 9 1 24 10 35 22 34 38 36 256 5 566 -10 104 -27 177
-44 201 -11 14 -17 15 -34 4z m-1075 -394 c11 -29 24 -71 28 -93 7 -29 18 -46
47 -65 21 -14 49 -45 63 -70 14 -24 40 -61 59 -82 19 -21 35 -45 35 -52 0 -8
10 -22 21 -30 32 -22 18 -40 -48 -66 -119 -46 -209 -92 -241 -123 -33 -32 -34
-32 -49 -12 -30 39 -43 85 -43 154 0 38 5 73 10 76 14 8 13 72 -1 77 -8 3 -7
14 5 35 18 36 20 88 6 148 -5 22 -6 60 -3 84 l6 44 18 -34 c12 -23 19 -59 20
-109 l2 -75 15 123 c8 67 18 122 22 122 4 0 17 -24 28 -52z m-122 -323 c1 -14
-2 -25 -7 -25 -10 0 -12 33 -2 43 3 4 7 7 7 7 1 0 2 -11 2 -25z m934 -70 c20
-24 6 -28 -15 -5 -10 11 -13 20 -8 20 6 0 16 -7 23 -15z m-1633 -1707 l5 -83
-30 34 -29 35 -44 -17 c-25 -9 -48 -17 -52 -17 -11 0 4 33 27 59 23 26 107 83
113 77 3 -2 7 -42 10 -88z"/>
<path d="M962 2383 c-15 -30 1 -68 27 -68 30 0 46 25 37 58 -5 20 -13 27 -31
27 -13 0 -28 -8 -33 -17z m54 -19 c8 -33 -9 -52 -31 -34 -15 13 -20 42 -8 53
14 15 33 6 39 -19z"/>
<path d="M980 2355 c0 -8 7 -15 15 -15 9 0 12 6 9 15 -4 8 -10 15 -15 15 -5 0
-9 -7 -9 -15z"/>
<path d="M1628 2343 c7 -3 16 -2 19 1 4 3 -2 6 -13 5 -11 0 -14 -3 -6 -6z"/>
<path d="M1803 2153 c9 -2 25 -2 35 0 9 3 1 5 -18 5 -19 0 -27 -2 -17 -5z"/>
<path d="M1005 1726 c-42 -42 -62 -165 -35 -215 13 -25 60 -51 92 -51 50 1
184 89 159 104 -6 4 -11 17 -11 30 0 49 -32 118 -64 137 -45 27 -111 25 -141
-5z m132 -11 c24 -17 52 -83 55 -134 3 -30 -3 -39 -40 -68 -51 -39 -115 -45
-152 -15 -44 36 -20 200 32 222 35 14 81 12 105 -5z"/>
<path d="M1004 1625 c-14 -21 -15 -31 -6 -50 24 -52 60 -16 47 45 -8 37 -19
38 -41 5z"/>
<path d="M751 1698 c0 -9 -4 -25 -7 -35 -5 -17 -5 -17 6 0 6 10 9 25 7 35 -4
15 -5 15 -6 0z"/>
<path d="M557 1503 c-14 -13 -6 -23 18 -23 16 0 25 6 25 15 0 15 -31 21 -43 8z"/>
<path d="M1030 1315 c0 -19 21 -23 160 -29 131 -6 278 -22 330 -36 47 -13 77
-13 64 0 -17 17 -299 61 -418 65 -59 2 -111 6 -114 9 -10 11 -22 6 -22 -9z"/>
<path d="M905 1270 c-4 -6 6 -10 22 -11 15 0 37 -5 48 -10 15 -7 9 -8 -22 -4
-74 9 -46 -11 34 -24 42 -7 83 -15 92 -19 9 -3 13 -1 8 4 -5 5 -25 14 -45 21
l-37 12 40 -5 c59 -8 75 -14 75 -27 0 -8 82 -36 203 -70 192 -54 267 -68 267
-48 0 16 -25 29 -95 46 -38 9 -86 23 -105 31 -19 7 -116 32 -215 54 -99 22
-196 45 -216 50 -45 12 -46 12 -54 0z m360 -90 c13 -6 15 -9 5 -9 -8 0 -22 4
-30 9 -18 12 -2 12 25 0z m129 -34 c44 -13 101 -29 124 -35 24 -7 42 -14 39
-17 -5 -5 -203 47 -247 65 -46 18 2 11 84 -13z"/>
<path d="M4703 1252 c-9 -6 -10 -17 -4 -39 5 -17 7 -34 3 -37 -3 -3 -83 -6
-179 -6 l-173 0 0 -30 0 -30 176 0 177 0 -7 -42 c-22 -135 -122 -247 -246
-273 -50 -11 -52 -13 -34 -46 18 -35 32 -35 121 6 97 44 177 137 209 243 19
59 33 172 22 172 -4 0 -13 20 -19 45 -11 44 -22 53 -46 37z"/>
<path d="M4775 1243 c3 -10 9 -30 12 -45 6 -28 18 -34 40 -20 9 6 10 17 2 45
-8 30 -15 37 -36 37 -20 0 -24 -4 -18 -17z"/>
<path d="M3154 1242 c-21 -3 -21 -5 -8 -49 17 -56 15 -54 41 -47 21 6 21 8 8
51 -16 52 -14 50 -41 45z"/>
<path d="M3220 1238 c0 -7 5 -29 10 -50 8 -29 14 -35 30 -31 22 6 25 28 10 67
-10 27 -50 37 -50 14z"/>
<path d="M4177 1242 c-11 -2 -16 -10 -13 -17 3 -8 8 -30 12 -50 5 -31 9 -35
28 -29 29 9 29 7 16 53 -12 44 -17 49 -43 43z"/>
<path d="M4245 1228 c3 -13 9 -33 12 -45 4 -16 13 -23 29 -23 28 0 28 0 12 51
-9 32 -16 39 -36 39 -21 0 -23 -3 -17 -22z"/>
<path d="M5394 1188 c-10 -35 -38 -91 -61 -125 -38 -56 -41 -65 -31 -88 l11
-25 24 22 23 21 0 -151 0 -152 30 0 30 0 0 201 c0 191 1 205 25 272 20 55 23
72 13 79 -31 19 -45 8 -64 -54z"/>
<path d="M5535 1223 c-10 -42 -54 -131 -80 -161 -23 -27 -23 -28 -5 -52 22
-29 33 -23 75 49 51 86 55 75 55 -159 l0 -210 30 0 30 0 0 65 0 65 85 0 85 0
0 30 0 30 -85 0 -85 0 0 45 0 45 85 0 85 0 0 30 0 30 -85 0 -85 0 0 40 0 40
90 0 90 0 0 30 0 30 -120 0 -120 0 10 26 c17 42 12 54 -19 54 -23 0 -30 -5
-36 -27z"/>
<path d="M2471 1165 c-22 -44 -51 -81 -93 -120 l-62 -55 21 -22 22 -21 35 27
c20 15 52 47 73 71 l37 45 97 0 97 0 -10 -37 c-6 -21 -16 -49 -24 -63 -29 -55
-29 -55 -65 -28 -19 14 -48 33 -65 41 -30 15 -32 15 -52 -6 l-22 -23 30 -17
c16 -10 43 -29 60 -44 25 -21 28 -28 18 -40 -31 -37 -118 -84 -206 -109 -10
-3 -9 -10 4 -30 21 -32 45 -29 141 17 124 59 222 188 257 337 l14 62 -112 0
c-62 0 -115 3 -119 6 -3 4 0 19 8 34 13 26 13 28 -8 34 -39 10 -44 7 -76 -59z"/>
<path d="M3590 1180 l0 -50 -140 0 -140 0 0 -35 0 -35 115 0 c63 0 115 -3 115
-6 0 -18 -71 -102 -141 -168 -79 -73 -82 -77 -69 -101 7 -14 17 -25 22 -25 18
0 136 111 183 172 l50 67 3 -144 3 -145 29 0 30 0 0 175 0 174 63 3 c62 3 62
3 65 36 l3 32 -65 0 -66 0 0 50 c0 49 -1 50 -30 50 -29 0 -30 -1 -30 -50z"/>
<path d="M5930 1125 l0 -105 190 0 190 0 0 105 0 105 -190 0 -190 0 0 -105z
m328 3 l3 -48 -140 0 -141 0 0 50 0 51 138 -3 137 -3 3 -47z"/>
<path d="M5178 1058 c-3 -141 -6 -168 -23 -197 -25 -43 -74 -68 -156 -83 -35
-6 -65 -12 -67 -13 -2 -1 0 -14 4 -29 5 -22 12 -26 42 -26 71 0 154 31 197 74
56 57 65 96 65 280 l0 156 -29 0 -29 0 -4 -162z"/>
<path d="M2850 1190 c-19 -35 -10 -45 65 -76 l74 -31 12 29 c15 36 10 41 -73
72 -66 25 -68 25 -78 6z"/>
<path d="M3871 1178 c-6 -17 -10 -32 -9 -32 2 -1 38 -15 80 -32 l77 -31 11 30
c5 17 7 34 3 37 -8 7 -139 60 -147 60 -2 0 -9 -14 -15 -32z"/>
<path d="M4900 1045 l0 -165 30 0 30 0 0 165 0 165 -30 0 -30 0 0 -165z"/>
<path d="M1850 1165 l0 -34 146 -3 146 -3 -38 -73 c-48 -93 -143 -197 -222
-242 -34 -19 -61 -37 -61 -40 0 -3 8 -16 19 -29 l20 -23 47 28 c27 15 78 56
114 91 l67 64 84 -91 84 -90 28 28 27 29 -94 86 -94 87 43 87 c24 49 46 105
50 126 l6 37 -186 0 -186 0 0 -35z"/>
<path d="M545 1170 c-3 -5 1 -10 9 -10 9 0 16 5 16 10 0 6 -4 10 -9 10 -6 0
-13 -4 -16 -10z"/>
<path d="M1010 1105 c0 -8 9 -19 19 -24 37 -20 355 -151 365 -151 16 1 -41 46
-99 80 -58 33 -246 110 -269 110 -9 0 -16 -7 -16 -15z m102 -29 c75 -29 208
-93 208 -101 0 -3 -12 1 -27 9 -16 7 -80 35 -143 61 -63 26 -117 49 -119 51
-11 10 24 2 81 -20z"/>
<path d="M3195 1108 c-3 -7 -12 -33 -20 -58 -41 -117 -119 -198 -223 -230 -35
-11 -80 -20 -99 -20 -34 0 -34 -1 -28 -32 4 -18 10 -36 14 -39 11 -11 132 19
188 46 93 46 173 146 218 274 l14 41 -30 15 c-23 12 -30 13 -34 3z"/>
<path d="M4207 1066 c-21 -67 -85 -166 -125 -195 -50 -35 -115 -60 -176 -67
l-58 -7 6 -35 c3 -19 7 -36 9 -38 7 -7 156 35 197 56 74 38 127 96 175 192 25
50 45 98 45 107 0 14 -36 41 -54 41 -1 0 -10 -24 -19 -54z"/>
<path d="M2801 1044 c-6 -15 -10 -28 -9 -29 10 -7 142 -65 148 -65 4 0 12 12
19 27 15 33 5 43 -76 73 -68 25 -67 25 -82 -6z"/>
<path d="M3830 1050 c-17 -31 -11 -39 55 -66 91 -39 89 -38 102 -4 l12 32 -54
24 c-85 37 -102 39 -115 14z"/>
<path d="M5870 830 l0 -140 30 0 c20 0 30 5 30 15 0 12 13 15 55 15 42 0 55
-3 55 -15 0 -9 9 -15 25 -15 l25 0 0 140 0 140 -110 0 -110 0 0 -140z m170 20
l0 -70 -55 0 -55 0 0 70 0 70 55 0 55 0 0 -70z"/>
<path d="M6132 833 l3 -138 28 -3 c19 -2 27 1 27 12 0 13 12 16 60 16 47 0 60
-3 60 -15 0 -9 9 -15 25 -15 l25 0 0 140 0 140 -115 0 -116 0 3 -137z m178 17
l0 -70 -60 0 -60 0 0 70 0 70 60 0 60 0 0 -70z"/>
<path d="M840 841 c0 -7 46 -45 80 -66 18 -11 116 -125 141 -165 9 -14 20 -41
24 -60 4 -19 13 -44 19 -55 7 -11 16 -33 20 -49 4 -15 15 -40 26 -55 13 -18
20 -48 22 -96 2 -39 7 -76 11 -82 4 -6 4 -19 0 -30 -3 -10 -2 -15 3 -10 5 5 7
52 5 105 -3 84 -6 100 -27 125 -13 16 -24 39 -24 52 0 13 -4 27 -10 30 -5 3
-17 31 -26 61 -10 35 -34 78 -65 117 -27 34 -59 76 -70 94 -11 17 -31 34 -44
37 -14 4 -25 10 -25 15 0 5 -13 16 -30 25 -16 8 -30 11 -30 7z"/>
<path d="M2947 603 c634 -2 1672 -2 2305 0 634 1 116 2 -1152 2 -1268 0 -1786
-1 -1153 -2z"/>
<path d="M430 464 c-52 -40 -90 -80 -90 -96 0 -7 19 -9 55 -5 53 5 55 4 85
-30 18 -20 36 -46 42 -59 12 -26 34 -38 43 -24 10 16 7 143 -4 179 -13 44 -39
71 -65 70 -12 0 -41 -16 -66 -35z m106 -16 c18 -35 31 -146 20 -174 -5 -14
-12 -8 -35 28 -40 63 -75 89 -112 81 -16 -3 -29 -1 -29 4 0 15 102 93 122 93
10 0 25 -14 34 -32z"/>
<path d="M2452 483 c-60 -29 -80 -107 -42 -156 11 -14 41 -35 68 -48 71 -33
92 -56 92 -100 0 -29 -6 -42 -26 -58 -45 -36 -92 -24 -114 29 -13 31 -25 36
-49 21 -11 -7 -10 -15 5 -46 39 -84 139 -99 201 -31 28 30 33 43 33 83 0 68
-23 98 -105 141 -57 30 -71 42 -73 63 -6 53 61 85 107 51 20 -14 32 -17 44
-10 24 13 5 46 -38 64 -44 18 -62 17 -103 -3z"/>
<path d="M3886 490 c-94 -30 -156 -119 -156 -226 0 -59 45 -142 98 -179 38
-26 52 -30 112 -30 60 0 74 4 112 30 28 20 53 49 71 85 25 47 28 64 24 115 -5
68 -22 107 -63 149 -54 53 -135 76 -198 56z m124 -62 c84 -43 114 -150 67
-239 -62 -116 -216 -116 -274 1 -46 90 -16 196 67 238 24 12 56 22 70 22 14 0
46 -10 70 -22z"/>
<path d="M4472 487 c-88 -32 -142 -113 -142 -213 1 -98 49 -174 132 -208 123
-52 258 46 258 187 l0 27 -80 0 c-79 0 -80 0 -80 -25 0 -23 3 -25 50 -25 56 0
61 -9 35 -61 -35 -66 -123 -88 -186 -46 -100 68 -106 222 -11 295 28 21 46 27
88 27 44 0 58 -5 92 -32 38 -31 40 -31 56 -14 16 18 15 20 -19 48 -59 49 -128
63 -193 40z"/>
<path d="M2640 465 c0 -23 3 -25 50 -25 l50 0 0 -190 0 -190 25 0 25 0 0 190
0 190 45 0 c41 0 45 2 45 25 l0 25 -120 0 -120 0 0 -25z"/>
<path d="M2920 323 c0 -150 2 -172 20 -201 60 -98 196 -94 248 8 20 40 22 58
22 202 l0 158 -25 0 -25 0 0 -149 c0 -82 -4 -161 -10 -175 -27 -71 -99 -89
-151 -37 l-29 29 0 166 0 166 -25 0 -25 0 0 -167z"/>
<path d="M3277 483 c-4 -3 -7 -100 -7 -215 l0 -208 69 0 c157 0 240 74 241
215 0 105 -53 178 -149 205 -41 11 -144 14 -154 3z m190 -74 c19 -12 42 -37
49 -55 21 -50 18 -133 -6 -172 -24 -39 -89 -71 -142 -72 l-38 0 0 166 0 167
51 -6 c28 -4 66 -16 86 -28z"/>
<path d="M3630 275 l0 -215 25 0 25 0 0 215 0 215 -25 0 -25 0 0 -215z"/>
<path d="M4770 276 l0 -216 25 0 25 0 0 105 0 106 93 -3 92 -3 3 -102 c3 -102
3 -103 27 -103 l25 0 0 215 0 215 -25 0 c-25 0 -25 -1 -25 -85 l0 -85 -95 0
-94 0 -3 83 c-3 76 -5 82 -25 85 l-23 3 0 -215z"/>
<path d="M5130 275 l0 -215 25 0 25 0 0 215 0 215 -25 0 -25 0 0 -215z"/>
<path d="M5250 275 l0 -215 65 0 c111 0 165 40 165 120 0 38 -27 88 -52 96
-22 6 -22 13 -3 38 20 26 19 96 -1 125 -22 31 -73 51 -129 51 l-45 0 0 -215z
m125 151 c14 -10 20 -26 20 -56 0 -48 -21 -70 -67 -70 l-28 0 0 70 0 70 28 0
c16 0 37 -6 47 -14z m-3 -176 c41 -12 58 -34 58 -74 0 -41 -33 -66 -85 -66
l-45 0 0 75 c0 84 1 84 72 65z"/>
<path d="M5540 275 l0 -215 85 0 c84 0 85 0 85 25 0 24 -3 25 -60 25 l-60 0 0
190 0 190 -25 0 -25 0 0 -215z"/>
<path d="M5740 275 l0 -215 25 0 25 0 0 215 0 215 -25 0 -25 0 0 -215z"/>
<path d="M793 143 c-29 -32 -52 -62 -50 -68 2 -5 27 -12 57 -15 42 -5 57 -11
74 -33 23 -28 76 -38 76 -14 -1 60 -22 143 -41 163 -34 37 -57 30 -116 -33z
m111 15 c17 -27 32 -148 19 -148 -5 0 -22 13 -38 30 -21 22 -41 31 -78 36
l-49 7 48 48 c53 54 76 60 98 27z"/>
</g>
</svg>
